<svg width="375" height="345" viewBox="0 0 375 345" fill="none" xmlns="http://www.w3.org/2000/svg">
<path d="M172.216 303L169.948 299.04V298.512H170.212C170.852 298.512 171.34 298.42 171.676 298.236C172.02 298.052 172.22 297.72 172.276 297.24H169.948V296.472H172.264C172.184 296.024 171.972 295.7 171.628 295.5C171.292 295.3 170.82 295.2 170.212 295.2H169.948V294.432H174.916V295.2H172.648C173.032 295.512 173.26 295.936 173.332 296.472H174.916V297.24H173.356C173.3 297.824 173.076 298.28 172.684 298.608C172.3 298.928 171.788 299.132 171.148 299.22L173.44 303H172.216ZM176.551 302.724L176.935 301.752C177.343 302 177.815 302.124 178.351 302.124C179.239 302.124 179.903 301.872 180.343 301.368C180.791 300.856 181.027 300.188 181.051 299.364C180.899 299.644 180.647 299.88 180.295 300.072C179.951 300.264 179.531 300.36 179.035 300.36C178.315 300.36 177.687 300.128 177.151 299.664C176.615 299.192 176.347 298.548 176.347 297.732C176.347 296.948 176.627 296.304 177.187 295.8C177.755 295.296 178.431 295.044 179.215 295.044C180.047 295.044 180.759 295.348 181.351 295.956C181.943 296.564 182.239 297.452 182.239 298.62C182.239 300.076 181.911 301.2 181.255 301.992C180.607 302.784 179.639 303.18 178.351 303.18C178.047 303.18 177.719 303.136 177.367 303.048C177.015 302.96 176.743 302.852 176.551 302.724ZM180.895 297.708C180.895 297.228 180.727 296.836 180.391 296.532C180.055 296.228 179.663 296.076 179.215 296.076C178.759 296.076 178.363 296.228 178.027 296.532C177.699 296.828 177.535 297.22 177.535 297.708C177.535 298.212 177.699 298.612 178.027 298.908C178.355 299.204 178.751 299.352 179.215 299.352C179.671 299.352 180.063 299.204 180.391 298.908C180.727 298.604 180.895 298.204 180.895 297.708ZM183.26 301.248V299.892L186.596 295.224H188.216V300.156H189.548V301.248H188.216V303H187.076V301.248H183.26ZM187.076 300.156V296.352L184.34 300.156H187.076ZM190.57 302.232C190.57 302.016 190.654 301.828 190.822 301.668C190.99 301.508 191.198 301.428 191.446 301.428C191.718 301.428 191.946 301.528 192.13 301.728C192.322 301.928 192.418 302.208 192.418 302.568C192.418 303.288 192.234 303.844 191.866 304.236C191.498 304.628 191.09 304.852 190.642 304.908V304.284C190.93 304.22 191.166 304.06 191.35 303.804C191.534 303.556 191.63 303.284 191.638 302.988C191.582 303.028 191.494 303.048 191.374 303.048C191.142 303.048 190.95 302.976 190.798 302.832C190.646 302.68 190.57 302.48 190.57 302.232ZM194.95 298.02L193.774 297.876C193.766 297.804 193.762 297.7 193.762 297.564C193.762 296.868 194.006 296.276 194.494 295.788C194.982 295.292 195.634 295.044 196.45 295.044C197.258 295.044 197.898 295.276 198.37 295.74C198.842 296.196 199.078 296.76 199.078 297.432C199.078 298.416 198.59 299.216 197.614 299.832L196.078 300.816C195.526 301.168 195.21 301.532 195.13 301.908H199.126V303H193.678C193.694 302.344 193.842 301.768 194.122 301.272C194.41 300.776 194.878 300.32 195.526 299.904L196.822 299.064C197.534 298.608 197.89 298.068 197.89 297.444C197.89 297.06 197.762 296.736 197.506 296.472C197.25 296.208 196.89 296.076 196.426 296.076C195.938 296.076 195.566 296.224 195.31 296.52C195.054 296.816 194.926 297.2 194.926 297.672C194.926 297.744 194.934 297.86 194.95 298.02ZM205.345 295.224V296.352C205.145 296.512 204.949 296.684 204.757 296.868C204.565 297.052 204.309 297.348 203.989 297.756C203.677 298.164 203.401 298.596 203.161 299.052C202.921 299.508 202.693 300.088 202.477 300.792C202.269 301.488 202.129 302.224 202.057 303H200.845C200.893 302.384 200.989 301.788 201.133 301.212C201.277 300.628 201.445 300.12 201.637 299.688C201.829 299.256 202.033 298.852 202.249 298.476C202.473 298.092 202.689 297.772 202.897 297.516C203.113 297.252 203.305 297.028 203.473 296.844C203.649 296.66 203.789 296.524 203.893 296.436L204.049 296.304H199.669V295.224H205.345ZM206.211 302.724L206.595 301.752C207.003 302 207.475 302.124 208.011 302.124C208.899 302.124 209.563 301.872 210.003 301.368C210.451 300.856 210.687 300.188 210.711 299.364C210.559 299.644 210.307 299.88 209.955 300.072C209.611 300.264 209.191 300.36 208.695 300.36C207.975 300.36 207.347 300.128 206.811 299.664C206.275 299.192 206.007 298.548 206.007 297.732C206.007 296.948 206.287 296.304 206.847 295.8C207.415 295.296 208.091 295.044 208.875 295.044C209.707 295.044 210.419 295.348 211.011 295.956C211.603 296.564 211.899 297.452 211.899 298.62C211.899 300.076 211.571 301.2 210.915 301.992C210.267 302.784 209.299 303.18 208.011 303.18C207.707 303.18 207.379 303.136 207.027 303.048C206.675 302.96 206.403 302.852 206.211 302.724ZM210.555 297.708C210.555 297.228 210.387 296.836 210.051 296.532C209.715 296.228 209.323 296.076 208.875 296.076C208.419 296.076 208.023 296.228 207.687 296.532C207.359 296.828 207.195 297.22 207.195 297.708C207.195 298.212 207.359 298.612 207.687 298.908C208.015 299.204 208.411 299.352 208.875 299.352C209.331 299.352 209.723 299.204 210.051 298.908C210.387 298.604 210.555 298.204 210.555 297.708ZM213.1 302.82C212.94 302.66 212.86 302.464 212.86 302.232C212.86 302 212.94 301.804 213.1 301.644C213.26 301.476 213.456 301.392 213.688 301.392C213.92 301.392 214.116 301.476 214.276 301.644C214.444 301.804 214.528 302 214.528 302.232C214.528 302.464 214.444 302.66 214.276 302.82C214.116 302.98 213.92 303.06 213.688 303.06C213.456 303.06 213.26 302.98 213.1 302.82ZM217.863 303H216.711V297.516H214.827V296.688C215.355 296.68 215.799 296.544 216.159 296.28C216.519 296.008 216.743 295.656 216.831 295.224H217.863V303ZM222.118 298.536C222.534 298.528 222.878 298.408 223.15 298.176C223.422 297.944 223.558 297.64 223.558 297.264C223.558 296.912 223.426 296.616 223.162 296.376C222.898 296.136 222.55 296.016 222.118 296.016C221.686 296.016 221.338 296.136 221.074 296.376C220.81 296.616 220.678 296.912 220.678 297.264C220.678 297.64 220.814 297.944 221.086 298.176C221.358 298.408 221.702 298.528 222.118 298.536ZM220.918 301.788C221.214 302.036 221.614 302.16 222.118 302.16C222.622 302.16 223.018 302.036 223.306 301.788C223.602 301.54 223.75 301.228 223.75 300.852C223.75 300.468 223.602 300.152 223.306 299.904C223.018 299.648 222.622 299.52 222.118 299.52C221.614 299.52 221.214 299.648 220.918 299.904C220.63 300.152 220.486 300.468 220.486 300.852C220.486 301.228 220.63 301.54 220.918 301.788ZM224.182 302.556C223.678 302.972 222.99 303.18 222.118 303.18C221.246 303.18 220.558 302.972 220.054 302.556C219.55 302.132 219.298 301.596 219.298 300.948C219.298 300.492 219.434 300.096 219.706 299.76C219.986 299.416 220.342 299.172 220.774 299.028C220.406 298.892 220.102 298.66 219.862 298.332C219.622 297.996 219.502 297.62 219.502 297.204C219.502 296.572 219.75 296.056 220.246 295.656C220.742 295.248 221.366 295.044 222.118 295.044C222.87 295.044 223.494 295.248 223.99 295.656C224.486 296.056 224.734 296.572 224.734 297.204C224.734 297.612 224.614 297.984 224.374 298.32C224.134 298.656 223.83 298.892 223.462 299.028C223.894 299.164 224.246 299.404 224.518 299.748C224.798 300.092 224.938 300.492 224.938 300.948C224.938 301.596 224.686 302.132 224.182 302.556Z" fill="#6C757D"/>
<path d="M15.632 338.728C15.328 339.048 15.176 339.608 15.176 340.408C15.176 341.208 15.328 341.768 15.632 342.088C15.8453 342.312 16.12 342.424 16.456 342.424C16.792 342.424 17.0667 342.312 17.28 342.088C17.584 341.768 17.736 341.208 17.736 340.408C17.736 339.608 17.584 339.048 17.28 338.728C17.0667 338.504 16.792 338.392 16.456 338.392C16.12 338.392 15.8453 338.504 15.632 338.728ZM14.864 342.288C14.5547 341.829 14.4 341.203 14.4 340.408C14.4 339.613 14.5547 338.987 14.864 338.528C15.232 337.973 15.7627 337.696 16.456 337.696C17.1493 337.696 17.68 337.973 18.048 338.528C18.3573 338.987 18.512 339.613 18.512 340.408C18.512 341.203 18.3573 341.829 18.048 342.288C17.68 342.843 17.1493 343.12 16.456 343.12C15.7627 343.12 15.232 342.843 14.864 342.288ZM19.1941 341.832V340.928L21.4181 337.816H22.4981V341.104H23.3861V341.832H22.4981V343H21.7381V341.832H19.1941ZM21.7381 341.104V338.568L19.9141 341.104H21.7381ZM24.2758 342.88C24.1691 342.773 24.1158 342.643 24.1158 342.488C24.1158 342.333 24.1691 342.203 24.2758 342.096C24.3825 341.984 24.5131 341.928 24.6678 341.928C24.8225 341.928 24.9531 341.984 25.0598 342.096C25.1718 342.203 25.2278 342.333 25.2278 342.488C25.2278 342.643 25.1718 342.773 25.0598 342.88C24.9531 342.987 24.8225 343.04 24.6678 343.04C24.5131 343.04 24.3825 342.987 24.2758 342.88ZM24.2678 340.064C24.1611 339.957 24.1078 339.827 24.1078 339.672C24.1078 339.517 24.1611 339.387 24.2678 339.28C24.3745 339.168 24.5051 339.112 24.6598 339.112C24.8145 339.112 24.9451 339.168 25.0518 339.28C25.1638 339.387 25.2198 339.517 25.2198 339.672C25.2198 339.827 25.1638 339.957 25.0518 340.064C24.9451 340.171 24.8145 340.224 24.6598 340.224C24.5051 340.224 24.3745 340.171 24.2678 340.064ZM28.0521 343H27.2841V339.344H26.0281V338.792C26.3801 338.787 26.6761 338.696 26.9161 338.52C27.1561 338.339 27.3055 338.104 27.3641 337.816H28.0521V343ZM32.8875 337.984L32.6475 338.624C32.3915 338.475 32.0822 338.4 31.7195 338.4C31.1915 338.4 30.7622 338.573 30.4315 338.92C30.1062 339.267 29.9275 339.712 29.8955 340.256C30.0128 340.064 30.1888 339.904 30.4235 339.776C30.6635 339.648 30.9435 339.584 31.2635 339.584C31.7915 339.584 32.2182 339.741 32.5435 340.056C32.8742 340.371 33.0395 340.803 33.0395 341.352C33.0395 341.891 32.8528 342.32 32.4795 342.64C32.1062 342.96 31.6528 343.12 31.1195 343.12C30.5648 343.12 30.0875 342.92 29.6875 342.52C29.2928 342.115 29.0955 341.515 29.0955 340.72C29.0955 339.781 29.3462 339.043 29.8475 338.504C30.3488 337.965 30.9888 337.696 31.7675 337.696C32.2422 337.696 32.6155 337.792 32.8875 337.984ZM30.0075 341.352C30.0075 341.677 30.1195 341.941 30.3435 342.144C30.5675 342.341 30.8288 342.44 31.1275 342.44C31.4422 342.44 31.7062 342.341 31.9195 342.144C32.1382 341.947 32.2475 341.683 32.2475 341.352C32.2475 341.016 32.1382 340.749 31.9195 340.552C31.7062 340.355 31.4422 340.256 31.1275 340.256C30.8128 340.256 30.5462 340.355 30.3275 340.552C30.1142 340.749 30.0075 341.016 30.0075 341.352Z" fill="#6C757D"/>
<path d="M95.632 338.728C95.328 339.048 95.176 339.608 95.176 340.408C95.176 341.208 95.328 341.768 95.632 342.088C95.8453 342.312 96.12 342.424 96.456 342.424C96.792 342.424 97.0667 342.312 97.28 342.088C97.584 341.768 97.736 341.208 97.736 340.408C97.736 339.608 97.584 339.048 97.28 338.728C97.0667 338.504 96.792 338.392 96.456 338.392C96.12 338.392 95.8453 338.504 95.632 338.728ZM94.864 342.288C94.5547 341.829 94.4 341.203 94.4 340.408C94.4 339.613 94.5547 338.987 94.864 338.528C95.232 337.973 95.7627 337.696 96.456 337.696C97.1493 337.696 97.68 337.973 98.048 338.528C98.3573 338.987 98.512 339.613 98.512 340.408C98.512 341.203 98.3573 341.829 98.048 342.288C97.68 342.843 97.1493 343.12 96.456 343.12C95.7627 343.12 95.232 342.843 94.864 342.288ZM103.075 337.984L102.835 338.624C102.579 338.475 102.27 338.4 101.907 338.4C101.379 338.4 100.95 338.573 100.619 338.92C100.294 339.267 100.115 339.712 100.083 340.256C100.2 340.064 100.376 339.904 100.611 339.776C100.851 339.648 101.131 339.584 101.451 339.584C101.979 339.584 102.406 339.741 102.731 340.056C103.062 340.371 103.227 340.803 103.227 341.352C103.227 341.891 103.04 342.32 102.667 342.64C102.294 342.96 101.84 343.12 101.307 343.12C100.752 343.12 100.275 342.92 99.875 342.52C99.4803 342.115 99.283 341.515 99.283 340.72C99.283 339.781 99.5337 339.043 100.035 338.504C100.536 337.965 101.176 337.696 101.955 337.696C102.43 337.696 102.803 337.792 103.075 337.984ZM100.195 341.352C100.195 341.677 100.307 341.941 100.531 342.144C100.755 342.341 101.016 342.44 101.315 342.44C101.63 342.44 101.894 342.341 102.107 342.144C102.326 341.947 102.435 341.683 102.435 341.352C102.435 341.016 102.326 340.749 102.107 340.552C101.894 340.355 101.63 340.256 101.315 340.256C101 340.256 100.734 340.355 100.515 340.552C100.302 340.749 100.195 341.016 100.195 341.352ZM104.284 342.88C104.177 342.773 104.124 342.643 104.124 342.488C104.124 342.333 104.177 342.203 104.284 342.096C104.39 341.984 104.521 341.928 104.676 341.928C104.83 341.928 104.961 341.984 105.068 342.096C105.18 342.203 105.236 342.333 105.236 342.488C105.236 342.643 105.18 342.773 105.068 342.88C104.961 342.987 104.83 343.04 104.676 343.04C104.521 343.04 104.39 342.987 104.284 342.88ZM104.276 340.064C104.169 339.957 104.116 339.827 104.116 339.672C104.116 339.517 104.169 339.387 104.276 339.28C104.382 339.168 104.513 339.112 104.668 339.112C104.822 339.112 104.953 339.168 105.06 339.28C105.172 339.387 105.228 339.517 105.228 339.672C105.228 339.827 105.172 339.957 105.06 340.064C104.953 340.171 104.822 340.224 104.668 340.224C104.513 340.224 104.382 340.171 104.276 340.064ZM106.116 341.592L106.868 341.368C106.889 341.688 107.007 341.947 107.22 342.144C107.439 342.341 107.711 342.44 108.036 342.44C108.351 342.44 108.615 342.344 108.828 342.152C109.041 341.96 109.148 341.707 109.148 341.392C109.148 341.051 109.041 340.787 108.828 340.6C108.615 340.413 108.348 340.32 108.028 340.32C107.639 340.32 107.324 340.445 107.084 340.696C107.009 340.669 106.887 340.621 106.716 340.552C106.545 340.483 106.412 340.429 106.316 340.392L106.988 337.816H109.724V338.536H107.508L107.124 340.024C107.353 339.768 107.705 339.64 108.18 339.64C108.697 339.64 109.119 339.795 109.444 340.104C109.775 340.413 109.94 340.832 109.94 341.36C109.94 341.861 109.764 342.283 109.412 342.624C109.06 342.96 108.601 343.128 108.036 343.128C107.503 343.128 107.057 342.979 106.7 342.68C106.348 342.381 106.153 342.019 106.116 341.592ZM110.499 341.832V340.928L112.723 337.816H113.803V341.104H114.691V341.832H113.803V343H113.043V341.832H110.499ZM113.043 341.104V338.568L111.219 341.104H113.043Z" fill="#6C757D"/>
<path d="M174.632 338.728C174.328 339.048 174.176 339.608 174.176 340.408C174.176 341.208 174.328 341.768 174.632 342.088C174.845 342.312 175.12 342.424 175.456 342.424C175.792 342.424 176.067 342.312 176.28 342.088C176.584 341.768 176.736 341.208 176.736 340.408C176.736 339.608 176.584 339.048 176.28 338.728C176.067 338.504 175.792 338.392 175.456 338.392C175.12 338.392 174.845 338.504 174.632 338.728ZM173.864 342.288C173.555 341.829 173.4 341.203 173.4 340.408C173.4 339.613 173.555 338.987 173.864 338.528C174.232 337.973 174.763 337.696 175.456 337.696C176.149 337.696 176.68 337.973 177.048 338.528C177.357 338.987 177.512 339.613 177.512 340.408C177.512 341.203 177.357 341.829 177.048 342.288C176.68 342.843 176.149 343.12 175.456 343.12C174.763 343.12 174.232 342.843 173.864 342.288ZM178.37 342.816L178.626 342.168C178.898 342.333 179.213 342.416 179.57 342.416C180.162 342.416 180.605 342.248 180.898 341.912C181.197 341.571 181.354 341.125 181.37 340.576C181.269 340.763 181.101 340.92 180.866 341.048C180.637 341.176 180.357 341.24 180.026 341.24C179.546 341.24 179.127 341.085 178.77 340.776C178.413 340.461 178.234 340.032 178.234 339.488C178.234 338.965 178.421 338.536 178.794 338.2C179.173 337.864 179.623 337.696 180.146 337.696C180.701 337.696 181.175 337.899 181.57 338.304C181.965 338.709 182.162 339.301 182.162 340.08C182.162 341.051 181.943 341.8 181.506 342.328C181.074 342.856 180.429 343.12 179.57 343.12C179.367 343.12 179.149 343.091 178.914 343.032C178.679 342.973 178.498 342.901 178.37 342.816ZM181.266 339.472C181.266 339.152 181.154 338.891 180.93 338.688C180.706 338.485 180.445 338.384 180.146 338.384C179.842 338.384 179.578 338.485 179.354 338.688C179.135 338.885 179.026 339.147 179.026 339.472C179.026 339.808 179.135 340.075 179.354 340.272C179.573 340.469 179.837 340.568 180.146 340.568C180.45 340.568 180.711 340.469 180.93 340.272C181.154 340.069 181.266 339.803 181.266 339.472ZM183.331 342.88C183.224 342.773 183.171 342.643 183.171 342.488C183.171 342.333 183.224 342.203 183.331 342.096C183.437 341.984 183.568 341.928 183.723 341.928C183.877 341.928 184.008 341.984 184.115 342.096C184.227 342.203 184.283 342.333 184.283 342.488C184.283 342.643 184.227 342.773 184.115 342.88C184.008 342.987 183.877 343.04 183.723 343.04C183.568 343.04 183.437 342.987 183.331 342.88ZM183.323 340.064C183.216 339.957 183.163 339.827 183.163 339.672C183.163 339.517 183.216 339.387 183.323 339.28C183.429 339.168 183.56 339.112 183.715 339.112C183.869 339.112 184 339.168 184.107 339.28C184.219 339.387 184.275 339.517 184.275 339.672C184.275 339.827 184.219 339.957 184.107 340.064C184 340.171 183.869 340.224 183.715 340.224C183.56 340.224 183.429 340.171 183.323 340.064ZM187.107 343H186.339V339.344H185.083V338.792C185.435 338.787 185.731 338.696 185.971 338.52C186.211 338.339 186.36 338.104 186.419 337.816H187.107V343ZM189.943 340.024C190.22 340.019 190.45 339.939 190.631 339.784C190.812 339.629 190.903 339.427 190.903 339.176C190.903 338.941 190.815 338.744 190.639 338.584C190.463 338.424 190.231 338.344 189.943 338.344C189.655 338.344 189.423 338.424 189.247 338.584C189.071 338.744 188.983 338.941 188.983 339.176C188.983 339.427 189.074 339.629 189.255 339.784C189.436 339.939 189.666 340.019 189.943 340.024ZM189.143 342.192C189.34 342.357 189.607 342.44 189.943 342.44C190.279 342.44 190.543 342.357 190.735 342.192C190.932 342.027 191.031 341.819 191.031 341.568C191.031 341.312 190.932 341.101 190.735 340.936C190.543 340.765 190.279 340.68 189.943 340.68C189.607 340.68 189.34 340.765 189.143 340.936C188.951 341.101 188.855 341.312 188.855 341.568C188.855 341.819 188.951 342.027 189.143 342.192ZM191.319 342.704C190.983 342.981 190.524 343.12 189.943 343.12C189.362 343.12 188.903 342.981 188.567 342.704C188.231 342.421 188.063 342.064 188.063 341.632C188.063 341.328 188.154 341.064 188.335 340.84C188.522 340.611 188.759 340.448 189.047 340.352C188.802 340.261 188.599 340.107 188.439 339.888C188.279 339.664 188.199 339.413 188.199 339.136C188.199 338.715 188.364 338.371 188.695 338.104C189.026 337.832 189.442 337.696 189.943 337.696C190.444 337.696 190.86 337.832 191.191 338.104C191.522 338.371 191.687 338.715 191.687 339.136C191.687 339.408 191.607 339.656 191.447 339.88C191.287 340.104 191.084 340.261 190.839 340.352C191.127 340.443 191.362 340.603 191.543 340.832C191.73 341.061 191.823 341.328 191.823 341.632C191.823 342.064 191.655 342.421 191.319 342.704Z" fill="#6C757D"/>
<path d="M255.224 343H254.456V339.344H253.2V338.792C253.552 338.787 253.848 338.696 254.088 338.52C254.328 338.339 254.477 338.104 254.536 337.816H255.224V343ZM256.1 341.832V340.928L258.324 337.816H259.404V341.104H260.292V341.832H259.404V343H258.644V341.832H256.1ZM258.644 341.104V338.568L256.82 341.104H258.644ZM261.182 342.88C261.075 342.773 261.022 342.643 261.022 342.488C261.022 342.333 261.075 342.203 261.182 342.096C261.289 341.984 261.419 341.928 261.574 341.928C261.729 341.928 261.859 341.984 261.966 342.096C262.078 342.203 262.134 342.333 262.134 342.488C262.134 342.643 262.078 342.773 261.966 342.88C261.859 342.987 261.729 343.04 261.574 343.04C261.419 343.04 261.289 342.987 261.182 342.88ZM261.174 340.064C261.067 339.957 261.014 339.827 261.014 339.672C261.014 339.517 261.067 339.387 261.174 339.28C261.281 339.168 261.411 339.112 261.566 339.112C261.721 339.112 261.851 339.168 261.958 339.28C262.07 339.387 262.126 339.517 262.126 339.672C262.126 339.827 262.07 339.957 261.958 340.064C261.851 340.171 261.721 340.224 261.566 340.224C261.411 340.224 261.281 340.171 261.174 340.064ZM263.014 341.592L263.766 341.368C263.788 341.688 263.905 341.947 264.118 342.144C264.337 342.341 264.609 342.44 264.934 342.44C265.249 342.44 265.513 342.344 265.726 342.152C265.94 341.96 266.046 341.707 266.046 341.392C266.046 341.051 265.94 340.787 265.726 340.6C265.513 340.413 265.246 340.32 264.926 340.32C264.537 340.32 264.222 340.445 263.982 340.696C263.908 340.669 263.785 340.621 263.614 340.552C263.444 340.483 263.31 340.429 263.214 340.392L263.886 337.816H266.622V338.536H264.406L264.022 340.024C264.252 339.768 264.604 339.64 265.078 339.64C265.596 339.64 266.017 339.795 266.342 340.104C266.673 340.413 266.838 340.832 266.838 341.36C266.838 341.861 266.662 342.283 266.31 342.624C265.958 342.96 265.5 343.128 264.934 343.128C264.401 343.128 263.956 342.979 263.598 342.68C263.246 342.381 263.052 342.019 263.014 341.592ZM270.98 337.816V338.568C270.847 338.675 270.716 338.789 270.588 338.912C270.46 339.035 270.29 339.232 270.076 339.504C269.868 339.776 269.684 340.064 269.524 340.368C269.364 340.672 269.212 341.059 269.068 341.528C268.93 341.992 268.836 342.483 268.788 343H267.98C268.012 342.589 268.076 342.192 268.172 341.808C268.268 341.419 268.38 341.08 268.508 340.792C268.636 340.504 268.772 340.235 268.916 339.984C269.066 339.728 269.21 339.515 269.348 339.344C269.492 339.168 269.62 339.019 269.732 338.896C269.85 338.773 269.943 338.683 270.012 338.624L270.116 338.536H267.196V337.816H270.98Z" fill="#6C757D"/>
<path d="M336.224 343H335.456V339.344H334.2V338.792C334.552 338.787 334.848 338.696 335.088 338.52C335.328 338.339 335.477 338.104 335.536 337.816H336.224V343ZM341.059 337.984L340.819 338.624C340.563 338.475 340.254 338.4 339.891 338.4C339.363 338.4 338.934 338.573 338.603 338.92C338.278 339.267 338.099 339.712 338.067 340.256C338.185 340.064 338.361 339.904 338.595 339.776C338.835 339.648 339.115 339.584 339.435 339.584C339.963 339.584 340.39 339.741 340.715 340.056C341.046 340.371 341.211 340.803 341.211 341.352C341.211 341.891 341.025 342.32 340.651 342.64C340.278 342.96 339.825 343.12 339.291 343.12C338.737 343.12 338.259 342.92 337.859 342.52C337.465 342.115 337.267 341.515 337.267 340.72C337.267 339.781 337.518 339.043 338.019 338.504C338.521 337.965 339.161 337.696 339.939 337.696C340.414 337.696 340.787 337.792 341.059 337.984ZM338.179 341.352C338.179 341.677 338.291 341.941 338.515 342.144C338.739 342.341 339.001 342.44 339.299 342.44C339.614 342.44 339.878 342.341 340.091 342.144C340.31 341.947 340.419 341.683 340.419 341.352C340.419 341.016 340.31 340.749 340.091 340.552C339.878 340.355 339.614 340.256 339.299 340.256C338.985 340.256 338.718 340.355 338.499 340.552C338.286 340.749 338.179 341.016 338.179 341.352ZM342.268 342.88C342.161 342.773 342.108 342.643 342.108 342.488C342.108 342.333 342.161 342.203 342.268 342.096C342.375 341.984 342.505 341.928 342.66 341.928C342.815 341.928 342.945 341.984 343.052 342.096C343.164 342.203 343.22 342.333 343.22 342.488C343.22 342.643 343.164 342.773 343.052 342.88C342.945 342.987 342.815 343.04 342.66 343.04C342.505 343.04 342.375 342.987 342.268 342.88ZM342.26 340.064C342.153 339.957 342.1 339.827 342.1 339.672C342.1 339.517 342.153 339.387 342.26 339.28C342.367 339.168 342.497 339.112 342.652 339.112C342.807 339.112 342.937 339.168 343.044 339.28C343.156 339.387 343.212 339.517 343.212 339.672C343.212 339.827 343.156 339.957 343.044 340.064C342.937 340.171 342.807 340.224 342.652 340.224C342.497 340.224 342.367 340.171 342.26 340.064ZM344.948 339.68L344.164 339.584C344.159 339.536 344.156 339.467 344.156 339.376C344.156 338.912 344.319 338.517 344.644 338.192C344.97 337.861 345.404 337.696 345.948 337.696C346.487 337.696 346.914 337.851 347.228 338.16C347.543 338.464 347.7 338.84 347.7 339.288C347.7 339.944 347.375 340.477 346.724 340.888L345.7 341.544C345.332 341.779 345.122 342.021 345.068 342.272H347.732V343H344.1C344.111 342.563 344.21 342.179 344.396 341.848C344.588 341.517 344.9 341.213 345.332 340.936L346.196 340.376C346.671 340.072 346.908 339.712 346.908 339.296C346.908 339.04 346.823 338.824 346.652 338.648C346.482 338.472 346.242 338.384 345.932 338.384C345.607 338.384 345.359 338.483 345.188 338.68C345.018 338.877 344.932 339.133 344.932 339.448C344.932 339.496 344.938 339.573 344.948 339.68ZM348.511 342.816L348.767 342.168C349.039 342.333 349.353 342.416 349.711 342.416C350.303 342.416 350.745 342.248 351.039 341.912C351.337 341.571 351.495 341.125 351.511 340.576C351.409 340.763 351.241 340.92 351.007 341.048C350.777 341.176 350.497 341.24 350.167 341.24C349.687 341.24 349.268 341.085 348.911 340.776C348.553 340.461 348.375 340.032 348.375 339.488C348.375 338.965 348.561 338.536 348.935 338.2C349.313 337.864 349.764 337.696 350.287 337.696C350.841 337.696 351.316 337.899 351.711 338.304C352.105 338.709 352.303 339.301 352.303 340.08C352.303 341.051 352.084 341.8 351.647 342.328C351.215 342.856 350.569 343.12 349.711 343.12C349.508 343.12 349.289 343.091 349.055 343.032C348.82 342.973 348.639 342.901 348.511 342.816ZM351.407 339.472C351.407 339.152 351.295 338.891 351.071 338.688C350.847 338.485 350.585 338.384 350.287 338.384C349.983 338.384 349.719 338.485 349.495 338.688C349.276 338.885 349.167 339.147 349.167 339.472C349.167 339.808 349.276 340.075 349.495 340.272C349.713 340.469 349.977 340.568 350.287 340.568C350.591 340.568 350.852 340.469 351.071 340.272C351.295 340.069 351.407 339.803 351.407 339.472Z" fill="#6C757D"/>
<path d="M306.216 12L303.948 8.04V7.512H304.212C304.852 7.512 305.34 7.42 305.676 7.236C306.02 7.052 306.22 6.72 306.276 6.24H303.948V5.472H306.264C306.184 5.024 305.972 4.7 305.628 4.5C305.292 4.3 304.82 4.2 304.212 4.2H303.948V3.432H308.916V4.2H306.648C307.032 4.512 307.26 4.936 307.332 5.472H308.916V6.24H307.356C307.3 6.824 307.076 7.28 306.684 7.608C306.3 7.928 305.788 8.132 305.148 8.22L307.44 12H306.216ZM310.551 11.724L310.935 10.752C311.343 11 311.815 11.124 312.351 11.124C313.239 11.124 313.903 10.872 314.343 10.368C314.791 9.856 315.027 9.188 315.051 8.364C314.899 8.644 314.647 8.88 314.295 9.072C313.951 9.264 313.531 9.36 313.035 9.36C312.315 9.36 311.687 9.128 311.151 8.664C310.615 8.192 310.347 7.548 310.347 6.732C310.347 5.948 310.627 5.304 311.187 4.8C311.755 4.296 312.431 4.044 313.215 4.044C314.047 4.044 314.759 4.348 315.351 4.956C315.943 5.564 316.239 6.452 316.239 7.62C316.239 9.076 315.911 10.2 315.255 10.992C314.607 11.784 313.639 12.18 312.351 12.18C312.047 12.18 311.719 12.136 311.367 12.048C311.015 11.96 310.743 11.852 310.551 11.724ZM314.895 6.708C314.895 6.228 314.727 5.836 314.391 5.532C314.055 5.228 313.663 5.076 313.215 5.076C312.759 5.076 312.363 5.228 312.027 5.532C311.699 5.828 311.535 6.22 311.535 6.708C311.535 7.212 311.699 7.612 312.027 7.908C312.355 8.204 312.751 8.352 313.215 8.352C313.671 8.352 314.063 8.204 314.391 7.908C314.727 7.604 314.895 7.204 314.895 6.708ZM323.081 4.476L322.721 5.436C322.337 5.212 321.873 5.1 321.329 5.1C320.537 5.1 319.893 5.36 319.397 5.88C318.909 6.4 318.641 7.068 318.593 7.884C318.769 7.596 319.033 7.356 319.385 7.164C319.745 6.972 320.165 6.876 320.645 6.876C321.437 6.876 322.077 7.112 322.565 7.584C323.061 8.056 323.309 8.704 323.309 9.528C323.309 10.336 323.029 10.98 322.469 11.46C321.909 11.94 321.229 12.18 320.429 12.18C319.597 12.18 318.881 11.88 318.281 11.28C317.689 10.672 317.393 9.772 317.393 8.58C317.393 7.172 317.769 6.064 318.521 5.256C319.273 4.448 320.233 4.044 321.401 4.044C322.113 4.044 322.673 4.188 323.081 4.476ZM318.761 9.528C318.761 10.016 318.929 10.412 319.265 10.716C319.601 11.012 319.993 11.16 320.441 11.16C320.913 11.16 321.309 11.012 321.629 10.716C321.957 10.42 322.121 10.024 322.121 9.528C322.121 9.024 321.957 8.624 321.629 8.328C321.309 8.032 320.913 7.884 320.441 7.884C319.969 7.884 319.569 8.032 319.241 8.328C318.921 8.624 318.761 9.024 318.761 9.528ZM324.465 11.232C324.465 11.016 324.549 10.828 324.717 10.668C324.885 10.508 325.093 10.428 325.341 10.428C325.613 10.428 325.841 10.528 326.025 10.728C326.217 10.928 326.313 11.208 326.313 11.568C326.313 12.288 326.129 12.844 325.761 13.236C325.393 13.628 324.985 13.852 324.537 13.908V13.284C324.825 13.22 325.061 13.06 325.245 12.804C325.429 12.556 325.525 12.284 325.533 11.988C325.477 12.028 325.389 12.048 325.269 12.048C325.037 12.048 324.845 11.976 324.693 11.832C324.541 11.68 324.465 11.48 324.465 11.232ZM330.395 7.536C330.811 7.528 331.155 7.408 331.427 7.176C331.699 6.944 331.835 6.64 331.835 6.264C331.835 5.912 331.703 5.616 331.439 5.376C331.175 5.136 330.827 5.016 330.395 5.016C329.963 5.016 329.615 5.136 329.351 5.376C329.087 5.616 328.955 5.912 328.955 6.264C328.955 6.64 329.091 6.944 329.363 7.176C329.635 7.408 329.979 7.528 330.395 7.536ZM329.195 10.788C329.491 11.036 329.891 11.16 330.395 11.16C330.899 11.16 331.295 11.036 331.583 10.788C331.879 10.54 332.027 10.228 332.027 9.852C332.027 9.468 331.879 9.152 331.583 8.904C331.295 8.648 330.899 8.52 330.395 8.52C329.891 8.52 329.491 8.648 329.195 8.904C328.907 9.152 328.763 9.468 328.763 9.852C328.763 10.228 328.907 10.54 329.195 10.788ZM332.459 11.556C331.955 11.972 331.267 12.18 330.395 12.18C329.523 12.18 328.835 11.972 328.331 11.556C327.827 11.132 327.575 10.596 327.575 9.948C327.575 9.492 327.711 9.096 327.983 8.76C328.263 8.416 328.619 8.172 329.051 8.028C328.683 7.892 328.379 7.66 328.139 7.332C327.899 6.996 327.779 6.62 327.779 6.204C327.779 5.572 328.027 5.056 328.523 4.656C329.019 4.248 329.643 4.044 330.395 4.044C331.147 4.044 331.771 4.248 332.267 4.656C332.763 5.056 333.011 5.572 333.011 6.204C333.011 6.612 332.891 6.984 332.651 7.32C332.411 7.656 332.107 7.892 331.739 8.028C332.171 8.164 332.523 8.404 332.795 8.748C333.075 9.092 333.215 9.492 333.215 9.948C333.215 10.596 332.963 11.132 332.459 11.556ZM339.486 4.224V5.352C339.286 5.512 339.09 5.684 338.898 5.868C338.706 6.052 338.45 6.348 338.13 6.756C337.818 7.164 337.542 7.596 337.302 8.052C337.062 8.508 336.834 9.088 336.618 9.792C336.41 10.488 336.27 11.224 336.198 12H334.986C335.034 11.384 335.13 10.788 335.274 10.212C335.418 9.628 335.586 9.12 335.778 8.688C335.97 8.256 336.174 7.852 336.39 7.476C336.614 7.092 336.83 6.772 337.038 6.516C337.254 6.252 337.446 6.028 337.614 5.844C337.79 5.66 337.93 5.524 338.034 5.436L338.19 5.304H333.81V4.224H339.486ZM340.352 11.724L340.736 10.752C341.144 11 341.616 11.124 342.152 11.124C343.04 11.124 343.704 10.872 344.144 10.368C344.592 9.856 344.828 9.188 344.852 8.364C344.7 8.644 344.448 8.88 344.096 9.072C343.752 9.264 343.332 9.36 342.836 9.36C342.116 9.36 341.488 9.128 340.952 8.664C340.416 8.192 340.148 7.548 340.148 6.732C340.148 5.948 340.428 5.304 340.988 4.8C341.556 4.296 342.232 4.044 343.016 4.044C343.848 4.044 344.56 4.348 345.152 4.956C345.744 5.564 346.04 6.452 346.04 7.62C346.04 9.076 345.712 10.2 345.056 10.992C344.408 11.784 343.44 12.18 342.152 12.18C341.848 12.18 341.52 12.136 341.168 12.048C340.816 11.96 340.544 11.852 340.352 11.724ZM344.696 6.708C344.696 6.228 344.528 5.836 344.192 5.532C343.856 5.228 343.464 5.076 343.016 5.076C342.56 5.076 342.164 5.228 341.828 5.532C341.5 5.828 341.336 6.22 341.336 6.708C341.336 7.212 341.5 7.612 341.828 7.908C342.156 8.204 342.552 8.352 343.016 8.352C343.472 8.352 343.864 8.204 344.192 7.908C344.528 7.604 344.696 7.204 344.696 6.708ZM347.24 11.82C347.08 11.66 347 11.464 347 11.232C347 11 347.08 10.804 347.24 10.644C347.4 10.476 347.596 10.392 347.828 10.392C348.06 10.392 348.256 10.476 348.416 10.644C348.584 10.804 348.668 11 348.668 11.232C348.668 11.464 348.584 11.66 348.416 11.82C348.256 11.98 348.06 12.06 347.828 12.06C347.596 12.06 347.4 11.98 347.24 11.82ZM352.212 8.388L351.636 7.416L353.928 5.304H350.208V4.224H355.488V5.28L353.268 7.332C353.9 7.332 354.456 7.54 354.936 7.956C355.424 8.372 355.668 8.952 355.668 9.696C355.668 10.384 355.416 10.972 354.912 11.46C354.408 11.948 353.72 12.192 352.848 12.192C351.992 12.192 351.304 11.956 350.784 11.484C350.272 11.004 349.996 10.424 349.956 9.744L351.108 9.48C351.132 9.984 351.304 10.392 351.624 10.704C351.952 11.008 352.356 11.16 352.836 11.16C353.348 11.16 353.748 11.024 354.036 10.752C354.332 10.472 354.48 10.128 354.48 9.72C354.48 9.248 354.324 8.888 354.012 8.64C353.7 8.392 353.328 8.268 352.896 8.268C352.664 8.268 352.436 8.308 352.212 8.388ZM356.565 9.888L357.693 9.552C357.725 10.032 357.901 10.42 358.221 10.716C358.549 11.012 358.957 11.16 359.445 11.16C359.917 11.16 360.313 11.016 360.633 10.728C360.953 10.44 361.113 10.06 361.113 9.588C361.113 9.076 360.953 8.68 360.633 8.4C360.313 8.12 359.913 7.98 359.433 7.98C358.849 7.98 358.377 8.168 358.017 8.544C357.905 8.504 357.721 8.432 357.465 8.328C357.209 8.224 357.009 8.144 356.865 8.088L357.873 4.224H361.977V5.304H358.653L358.077 7.536C358.421 7.152 358.949 6.96 359.661 6.96C360.437 6.96 361.069 7.192 361.557 7.656C362.053 8.12 362.301 8.748 362.301 9.54C362.301 10.292 362.037 10.924 361.509 11.436C360.981 11.94 360.293 12.192 359.445 12.192C358.645 12.192 357.977 11.968 357.441 11.52C356.913 11.072 356.621 10.528 356.565 9.888Z" fill="#6C757D"/>
<g filter="url(#filter0_d_169_405)">
<path d="M0 194.173L6.05816 208.646L15.7512 202.158L25.4443 274.525L35.1373 249.571L44.2246 239.589L54.5234 208.646L63.6107 135.282L73.3037 133.285L84.2084 138.276L93.2956 144.764L102.989 224.118L112.682 217.131L122.375 267.538L132.068 246.576L141.761 264.044L161.147 243.083L170.84 194.173L180.533 172.713L200.525 288L209.612 175.208L219.911 131.788L228.998 175.208L239.297 162.731L248.384 144.764L258.078 94.8564L268.95 36L278.675 52.9337L287.763 98.3499L296.85 105.337L307.149 103.341L316.842 71.3996L325.929 81.8803L336.228 17L346.527 23.9871L375 76.8895" stroke="#0063F5" stroke-width="2"/>
</g>
<line y1="325.5" x2="375" y2="325.5" stroke="#DFE2E4"/>
<line x1="24.5" y1="325" x2="24.5" y2="333" stroke="#DFE2E4"/>
<line x1="184.5" y1="325" x2="184.5" y2="333" stroke="#DFE2E4"/>
<line x1="104.5" y1="325" x2="104.5" y2="333" stroke="#DFE2E4"/>
<line x1="264.5" y1="325" x2="264.5" y2="333" stroke="#DFE2E4"/>
<line x1="344.5" y1="325" x2="344.5" y2="333" stroke="#DFE2E4"/>
<defs>
<filter id="filter0_d_169_405" x="-8.92236" y="7.28906" width="392.803" height="288.882" filterUnits="userSpaceOnUse" color-interpolation-filters="sRGB">
<feFlood flood-opacity="0" result="BackgroundImageFix"/>
<feColorMatrix in="SourceAlpha" type="matrix" values="0 0 0 0 0 0 0 0 0 0 0 0 0 0 0 0 0 0 127 0" result="hardAlpha"/>
<feOffset/>
<feGaussianBlur stdDeviation="4"/>
<feColorMatrix type="matrix" values="0 0 0 0 0 0 0 0 0 0.388235 0 0 0 0 0.960784 0 0 0 0.24 0"/>
<feBlend mode="normal" in2="BackgroundImageFix" result="effect1_dropShadow_169_405"/>
<feBlend mode="normal" in="SourceGraphic" in2="effect1_dropShadow_169_405" result="shape"/>
</filter>
</defs>
</svg>
