<svg width="28" height="29" viewBox="0 0 28 29" fill="none" xmlns="http://www.w3.org/2000/svg">
<g filter="url(#filter0_d_702_1514)">
<path d="M21.9994 10.7982H13.8633V2.75353C13.8633 2.65466 13.7815 2.57376 13.6815 2.57376H13.0906C11.8968 2.57183 10.7144 2.80332 9.61135 3.25491C8.50835 3.7065 7.50654 4.36929 6.66356 5.20513C5.83338 6.02344 5.17191 6.99344 4.7159 8.06121C4.24138 9.16867 3.99789 10.3595 4.00001 11.5622C3.99806 12.7426 4.23218 13.9118 4.6889 15.0024C5.14563 16.093 5.81594 17.0835 6.66129 17.917C7.49535 18.7417 8.46804 19.3911 9.54982 19.8428C10.6699 20.312 11.8742 20.5528 13.0906 20.5507C14.2844 20.5526 15.4669 20.3211 16.5699 19.8695C17.6729 19.4179 18.6747 18.7551 19.5177 17.9193C20.3517 17.0946 21.0085 16.1328 21.4653 15.0632C21.9398 13.9557 22.1833 12.765 22.1812 11.5622V10.978C22.1812 10.8791 22.0994 10.7982 21.9994 10.7982ZM18.4018 16.8609C17.6981 17.5513 16.8635 18.0976 15.9458 18.4686C15.0282 18.8395 14.0456 19.0278 13.0542 19.0226C11.052 19.0136 9.17029 18.2384 7.75443 16.8384C6.32948 15.4295 5.54542 13.5554 5.54542 11.5622C5.54542 9.56902 6.32948 7.69493 7.75443 6.28599C8.9953 5.05907 10.593 4.31078 12.3179 4.14V12.3262H20.5972C20.4222 14.0408 19.6586 15.6295 18.4018 16.8609ZM23.9993 9.5488L23.9402 8.91511C23.7471 6.84552 22.8175 4.89278 21.3221 3.41868C19.8257 1.94187 17.8548 1.0279 15.7496 0.834498L15.1065 0.776073C14.9996 0.767085 14.9087 0.847981 14.9087 0.953595V9.58475C14.9087 9.68362 14.9905 9.76452 15.0905 9.76452L23.8175 9.74205C23.9243 9.74205 24.0084 9.65216 23.9993 9.5488ZM16.4496 8.24098V2.47489C17.8812 2.77117 19.195 3.4722 20.2313 4.4928C21.2699 5.51748 21.9812 6.8208 22.2767 8.22525L16.4496 8.24098Z" fill="#6C757D"/>
</g>
<defs>
<filter id="filter0_d_702_1514" x="0" y="0.775391" width="28" height="27.7754" filterUnits="userSpaceOnUse" color-interpolation-filters="sRGB">
<feFlood flood-opacity="0" result="BackgroundImageFix"/>
<feColorMatrix in="SourceAlpha" type="matrix" values="0 0 0 0 0 0 0 0 0 0 0 0 0 0 0 0 0 0 127 0" result="hardAlpha"/>
<feOffset dy="4"/>
<feGaussianBlur stdDeviation="2"/>
<feComposite in2="hardAlpha" operator="out"/>
<feColorMatrix type="matrix" values="0 0 0 0 0 0 0 0 0 0 0 0 0 0 0 0 0 0 0.25 0"/>
<feBlend mode="normal" in2="BackgroundImageFix" result="effect1_dropShadow_702_1514"/>
<feBlend mode="normal" in="SourceGraphic" in2="effect1_dropShadow_702_1514" result="shape"/>
</filter>
</defs>
</svg>
